<mxfile host="app.diagrams.net" modified="2023-03-26T17:21:51.539Z" agent="5.0 (Windows NT 10.0; Win64; x64) AppleWebKit/537.36 (KHTML, like Gecko) Chrome/111.0.0.0 Safari/537.36" etag="ymSPNNS_FXVWABe7Hjxx" version="21.0.8" type="github">
  <diagram name="Page-1" id="LwGOefFe7iiwl1XGRfbS">
    <mxGraphModel dx="1434" dy="796" grid="1" gridSize="10" guides="1" tooltips="1" connect="1" arrows="1" fold="1" page="1" pageScale="1" pageWidth="850" pageHeight="1100" math="0" shadow="0">
      <root>
        <mxCell id="0" />
        <mxCell id="1" parent="0" />
        <mxCell id="L9RGi0RnW4nleBLLkitI-9" value="" style="edgeStyle=orthogonalEdgeStyle;rounded=0;orthogonalLoop=1;jettySize=auto;html=1;" edge="1" parent="1" source="L9RGi0RnW4nleBLLkitI-1" target="L9RGi0RnW4nleBLLkitI-2">
          <mxGeometry relative="1" as="geometry" />
        </mxCell>
        <mxCell id="L9RGi0RnW4nleBLLkitI-1" value="Start" style="ellipse;whiteSpace=wrap;html=1;" vertex="1" parent="1">
          <mxGeometry x="340" y="30" width="120" height="80" as="geometry" />
        </mxCell>
        <mxCell id="L9RGi0RnW4nleBLLkitI-10" value="" style="edgeStyle=orthogonalEdgeStyle;rounded=0;orthogonalLoop=1;jettySize=auto;html=1;" edge="1" parent="1" source="L9RGi0RnW4nleBLLkitI-2" target="L9RGi0RnW4nleBLLkitI-3">
          <mxGeometry relative="1" as="geometry" />
        </mxCell>
        <mxCell id="L9RGi0RnW4nleBLLkitI-16" value="" style="edgeStyle=orthogonalEdgeStyle;rounded=0;orthogonalLoop=1;jettySize=auto;html=1;" edge="1" parent="1" source="L9RGi0RnW4nleBLLkitI-2" target="L9RGi0RnW4nleBLLkitI-8">
          <mxGeometry relative="1" as="geometry" />
        </mxCell>
        <mxCell id="L9RGi0RnW4nleBLLkitI-2" value="for i from 1 to length(arr)-1" style="rounded=1;whiteSpace=wrap;html=1;" vertex="1" parent="1">
          <mxGeometry x="340" y="140" width="120" height="60" as="geometry" />
        </mxCell>
        <mxCell id="L9RGi0RnW4nleBLLkitI-11" value="" style="edgeStyle=orthogonalEdgeStyle;rounded=0;orthogonalLoop=1;jettySize=auto;html=1;" edge="1" parent="1" source="L9RGi0RnW4nleBLLkitI-3" target="L9RGi0RnW4nleBLLkitI-4">
          <mxGeometry relative="1" as="geometry" />
        </mxCell>
        <mxCell id="L9RGi0RnW4nleBLLkitI-3" value="current = arr[i]&lt;br&gt;x = i - 1" style="shape=parallelogram;perimeter=parallelogramPerimeter;whiteSpace=wrap;html=1;fixedSize=1;" vertex="1" parent="1">
          <mxGeometry x="340" y="230" width="120" height="60" as="geometry" />
        </mxCell>
        <mxCell id="L9RGi0RnW4nleBLLkitI-12" value="" style="edgeStyle=orthogonalEdgeStyle;rounded=0;orthogonalLoop=1;jettySize=auto;html=1;" edge="1" parent="1" source="L9RGi0RnW4nleBLLkitI-4" target="L9RGi0RnW4nleBLLkitI-5">
          <mxGeometry relative="1" as="geometry" />
        </mxCell>
        <mxCell id="L9RGi0RnW4nleBLLkitI-4" value="while x &amp;gt;= 0 and arr[x] &amp;gt; current:" style="rhombus;whiteSpace=wrap;html=1;" vertex="1" parent="1">
          <mxGeometry x="350" y="330" width="110" height="120" as="geometry" />
        </mxCell>
        <mxCell id="L9RGi0RnW4nleBLLkitI-13" value="" style="edgeStyle=orthogonalEdgeStyle;rounded=0;orthogonalLoop=1;jettySize=auto;html=1;" edge="1" parent="1" source="L9RGi0RnW4nleBLLkitI-5" target="L9RGi0RnW4nleBLLkitI-6">
          <mxGeometry relative="1" as="geometry" />
        </mxCell>
        <mxCell id="L9RGi0RnW4nleBLLkitI-5" value="arr[x+1] + arr[x]&lt;br&gt;x = x - 1" style="shape=parallelogram;perimeter=parallelogramPerimeter;whiteSpace=wrap;html=1;fixedSize=1;" vertex="1" parent="1">
          <mxGeometry x="340" y="490" width="120" height="60" as="geometry" />
        </mxCell>
        <mxCell id="L9RGi0RnW4nleBLLkitI-14" value="" style="edgeStyle=orthogonalEdgeStyle;rounded=0;orthogonalLoop=1;jettySize=auto;html=1;entryX=0;entryY=0.5;entryDx=0;entryDy=0;" edge="1" parent="1" source="L9RGi0RnW4nleBLLkitI-6" target="L9RGi0RnW4nleBLLkitI-2">
          <mxGeometry relative="1" as="geometry">
            <mxPoint x="260" y="620" as="targetPoint" />
            <Array as="points">
              <mxPoint x="240" y="620" />
              <mxPoint x="240" y="170" />
            </Array>
          </mxGeometry>
        </mxCell>
        <mxCell id="L9RGi0RnW4nleBLLkitI-6" value="arr[x+1] = current" style="shape=parallelogram;perimeter=parallelogramPerimeter;whiteSpace=wrap;html=1;fixedSize=1;" vertex="1" parent="1">
          <mxGeometry x="340" y="590" width="120" height="60" as="geometry" />
        </mxCell>
        <mxCell id="L9RGi0RnW4nleBLLkitI-8" value="end" style="ellipse;whiteSpace=wrap;html=1;" vertex="1" parent="1">
          <mxGeometry x="530" y="130" width="120" height="80" as="geometry" />
        </mxCell>
      </root>
    </mxGraphModel>
  </diagram>
</mxfile>
